<svg t="1646129242627" class="icon" viewBox="0 0 1024 1024" version="1.1" xmlns="http://www.w3.org/2000/svg" p-id="21021" width="32" height="32"><path d="M839.9872 835.9936H184.0128a8.0384 8.0384 0 0 0-7.9872 7.9872v60.0064c0 4.4032 3.584 8.0384 7.9872 8.0384h655.9744c4.4032 0 8.0384-3.584 8.0384-8.0384v-60.0064a8.0384 8.0384 0 0 0-8.0384-7.9872z m0-723.968H184.0128a8.0384 8.0384 0 0 0-7.9872 7.9872v60.0064c0 4.4032 3.584 7.9872 7.9872 7.9872h655.9744c4.4032 0 8.0384-3.584 8.0384-7.9872V120.0128a8.0384 8.0384 0 0 0-8.0384-7.9872zM610.816 378.0096a7.2704 7.2704 0 0 0 5.6832-11.7248l-100.8128-127.5904a7.168 7.168 0 0 0-11.264 0l-100.864 127.5904a7.2192 7.2192 0 0 0 5.7344 11.7248h66.7136v267.9808H413.184a7.2704 7.2704 0 0 0-5.6832 11.7248l100.8128 127.488a7.168 7.168 0 0 0 11.264 0l100.864-127.488a7.2192 7.2192 0 0 0-5.7344-11.7248h-66.7136V378.0096h62.8224z" p-id="21022" fill="#000000d9"></path></svg>
